<svg xmlns="http://www.w3.org/2000/svg" width="50" height="36">
    <path fill="#605C98" fill-rule="evenodd" d="M49.28 11.498c-.242-.292-.604-.462-.983-.462h-4.821c-1.192-3.104-2.739-6.145-4.501-7.293-6.094-3.967-22.259-3.967-28.353 0-1.763 1.149-3.306 4.192-4.502 7.293H1.299c-.383 0-.743.17-.983.462-.241.293-.337.677-.259 1.047l.714 3.42c.122.584.642 1 1.242 1h1.428c-1.379 1.573-2.047 3.554-2.056 5.536-.009 2.448.931 4.661 2.649 6.226.02.015.039.029.056.044v4.789c0 1.038.853 1.882 1.903 1.882h4.446c1.051 0 1.903-.844 1.903-1.882v-1.925h24.911v1.925c0 1.038.851 1.882 1.902 1.882H43.6c1.049 0 1.903-.844 1.903-1.882v-4.695c1.822-1.652 2.695-3.923 2.705-6.194.008-2.048-.691-4.103-2.151-5.707h1.523c.603 0 1.123-.417 1.242-1l.715-3.421c.076-.368-.017-.751-.257-1.045zM12.711 6.886c4.858-3.161 19.316-3.161 24.17 0 .944.614 2.157 3.087 3.27 6.118H9.444c1.11-3.03 2.323-5.503 3.267-6.118zm-5.69 16.088c0-2.045 1.677-3.702 3.743-3.702 2.069 0 3.743 1.657 3.743 3.702 0 2.044-1.674 3.701-3.743 3.701-2.066 0-3.743-1.657-3.743-3.701zm31.859 3.701c-2.066 0-3.743-1.657-3.743-3.701 0-2.045 1.677-3.702 3.743-3.702 2.068 0 3.743 1.657 3.743 3.702 0 2.044-1.677 3.701-3.743 3.701z"/>
</svg>
