<svg xmlns="http://www.w3.org/2000/svg" width="39" height="39">
    <path fill="#5247D9" fill-rule="evenodd" d="M19.638.474C9.223.474.75 8.947.75 19.362c0 10.415 8.473 18.888 18.888 18.888 10.414 0 18.887-8.473 18.887-18.888C38.525 8.947 30.052.474 19.638.474zm10.845 15.698L18.617 28.038c-.504.505-1.175.782-1.889.782-.713 0-1.384-.277-1.888-.782L8.792 21.99c-.505-.504-.782-1.175-.782-1.888 0-.714.277-1.385.782-1.889.504-.505 1.175-.783 1.889-.783.713 0 1.384.278 1.888.783l4.159 4.158 9.977-9.977c.505-.504 1.176-.782 1.889-.782.714 0 1.384.278 1.889.782 1.042 1.042 1.042 2.737 0 3.778z"/>
</svg>
