<svg xmlns="http://www.w3.org/2000/svg" width="36" height="36">
    <path fill="#29255A" fill-rule="evenodd" d="M34.996 14.797C33.67 7.852 28.07 2.252 21.125.926 8.703-1.447-2.04 9.296.332 21.719c1.327 6.944 6.927 12.544 13.871 13.871 12.423 2.373 23.166-8.371 20.793-20.793zm-9.147 11.645c-.431.432-.996.647-1.561.647s-1.13-.215-1.561-.647l-6.624-6.623c-.414-.414-.647-.975-.647-1.561V9.426c0-1.22.989-2.208 2.208-2.208 1.219 0 2.208.988 2.208 2.208v7.917l5.977 5.977c.862.863.862 2.26 0 3.122z"/>
</svg>
