<svg xmlns="http://www.w3.org/2000/svg" width="35" height="35">
    <path fill="#FFF" fill-rule="evenodd" d="M34.695 15.38c-.054-.484-.62-.848-1.11-.848-1.582 0-2.986-.925-3.574-2.358-.601-1.467-.214-3.177.965-4.255.371-.338.417-.904.105-1.298-.81-1.025-1.73-1.951-2.735-2.753-.393-.314-.971-.271-1.312.106-1.029 1.136-2.877 1.558-4.306.964-1.486-.623-2.424-2.125-2.331-3.736.03-.507-.342-.947-.848-1.006-1.29-.149-2.591-.153-3.884-.01-.5.055-.871.485-.855.985.056 1.596-.892 3.071-2.364 3.672-1.411.574-3.247.155-4.274-.971-.339-.371-.907-.416-1.303-.109-1.034.81-1.975 1.736-2.793 2.753-.318.395-.271.968.103 1.307 1.202 1.085 1.59 2.81.966 4.294-.596 1.415-2.07 2.327-3.757 2.327-.547-.018-.937.348-.997.845-.152 1.292-.154 2.61-.007 3.913.054.485.637.846 1.132.846 1.503-.038 2.946.889 3.552 2.358.603 1.467.215 3.177-.965 4.256-.37.338-.417.904-.105 1.296.802 1.019 1.723 1.945 2.731 2.755.395.317.971.273 1.314-.104 1.033-1.139 2.881-1.56 4.304-.965 1.49.622 2.427 2.123 2.336 3.735-.03.507.342.948.847 1.005.66.077 1.323.115 1.989.115.632 0 1.263-.034 1.895-.104.501-.055.871-.485.854-.985-.057-1.596.893-3.071 2.363-3.67 1.421-.579 3.248-.155 4.276.969.341.37.905.415 1.303.109 1.032-.808 1.971-1.734 2.792-2.753.319-.394.274-.968-.102-1.308-1.202-1.084-1.592-2.81-.968-4.292.587-1.396 2.006-2.333 3.532-2.333l.213.005c.496.04.951-.34 1.011-.844.152-1.293.154-2.61.007-3.913zM17.54 27.212c-5.497 0-9.953-4.442-9.953-9.921 0-5.48 4.456-9.921 9.953-9.921 5.497 0 9.953 4.441 9.953 9.921 0 1.86-.515 3.599-1.408 5.087l-4.358-4.345c.315-.741.482-1.545.482-2.375 0-1.625-.635-3.152-1.788-4.3-1.152-1.149-2.684-1.782-4.314-1.782-.544 0-1.085.072-1.609.215-.229.062-.417.25-.478.479-.062.235.008.475.192.658 0 0 2.152 2.161 2.871 2.879.076.075.076.254.065.319l-.007.047c-.072.789-.212 1.736-.328 2.1l-.046.044-.047.049c-.37.118-1.335.259-2.139.331v-.004l-.036.008-.034.002c-.087 0-.215-.024-.331-.14-.749-.747-2.816-2.793-2.816-2.793-.186-.184-.376-.222-.503-.222-.295 0-.56.212-.643.518-.569 2.099.034 4.357 1.574 5.893 1.153 1.148 2.685 1.781 4.315 1.781.833 0 1.639-.166 2.383-.48l4.406 4.391c-1.547.986-3.384 1.561-5.356 1.561z"/>
</svg>
