<svg xmlns="http://www.w3.org/2000/svg" width="29.274" height="19.608" viewBox="0 0 29.274 19.608"><defs></defs><path class="a" d="M25.685,19.608H3.59A3.6,3.6,0,0,1,0,16.017V3.59A3.6,3.6,0,0,1,3.59,0H25.685a3.594,3.594,0,0,1,3.589,3.59V16.017A3.594,3.594,0,0,1,25.685,19.608ZM1.657,6.95v9.067A1.936,1.936,0,0,0,3.59,17.952H25.685a1.936,1.936,0,0,0,1.933-1.935V6.95ZM3.59,1.656A1.936,1.936,0,0,0,1.657,3.59v1.7H27.618V3.59a1.936,1.936,0,0,0-1.933-1.935ZM22.923,15.379H20.161a.829.829,0,0,1,0-1.657h2.762a.829.829,0,0,1,0,1.657Z"/></svg>