<svg xmlns="http://www.w3.org/2000/svg" width="44" height="44">
    <path fill="#8985C0" fill-rule="evenodd" d="M42.711 33.687H41.35c-6.622 0-12.659 3.679-15.619 9.6-.219.437-.664.713-1.153.713H3.867C1.735 44 0 42.265 0 40.133V3.867C0 1.735 1.735 0 3.867 0h19.644c1.032 0 2.004.403 2.734 1.133l16.622 16.622c.73.73 1.133 1.702 1.133 2.734v11.909c0 .713-.577 1.289-1.289 1.289zM5.156 31.109c0 2.844 2.313 5.157 5.156 5.157 2.844 0 5.157-2.313 5.157-5.157V29.82c0-.712-.577-1.289-1.289-1.289H6.445c-.712 0-1.289.577-1.289 1.289v1.289zm33.31-10.462L23.353 5.534c-.241-.242-.569-.378-.911-.378H6.445c-.712 0-1.289.577-1.289 1.289V22c0 .712.577 1.289 1.289 1.289h31.11c1.429 0 1.602-1.952.911-2.642zM7.734 7.734h14.174l12.977 12.977H7.734V7.734zm2.578 25.953c-1.421 0-2.578-1.156-2.578-2.578h5.157c0 1.422-1.157 2.578-2.579 2.578z"/>
</svg>
