<svg xmlns="http://www.w3.org/2000/svg" width="37.679" height="21.116" viewBox="0 0 37.679 21.116"><defs></defs><path class="a" d="M25.281,21.116H12.4A4.122,4.122,0,0,1,8.282,17V4.118A4.122,4.122,0,0,1,12.4,0H25.281A4.122,4.122,0,0,1,29.4,4.118V17A4.122,4.122,0,0,1,25.281,21.116ZM12.4,1.793a2.326,2.326,0,0,0-2.322,2.325V17A2.326,2.326,0,0,0,12.4,19.324H25.281A2.326,2.326,0,0,0,27.6,17V4.118a2.326,2.326,0,0,0-2.322-2.325Zm20.243,16.1a.9.9,0,0,1-.9-.9V4.118a.9.9,0,0,1,1.794,0V17A.9.9,0,0,1,32.641,17.894Zm-27.6,0a.9.9,0,0,1-.9-.9V4.118a.9.9,0,0,1,1.794,0V17A.9.9,0,0,1,5.037,17.894Zm31.744-2.3a.9.9,0,0,1-.9-.9V6.417a.9.9,0,0,1,1.794,0V14.7A.9.9,0,0,1,36.782,15.595ZM.9,15.595a.9.9,0,0,1-.9-.9V6.417a.9.9,0,0,1,1.794,0V14.7A.9.9,0,0,1,.9,15.595Z"/></svg>