<svg xmlns="http://www.w3.org/2000/svg" width="44" height="48">
    <path fill="#29255A" fill-rule="evenodd" d="M42.913 44.552l-5.025-11.709c-.307-.717-1.013-1.183-1.795-1.183h-3.328l1.199-1.192c3.353-3.326 5.2-7.753 5.2-12.468 0-9.685-7.886-17.564-17.581-17.564S4.002 8.315 4.002 18c0 4.715 1.846 9.142 5.2 12.466l1.2 1.195H7.073c-.782 0-1.488.465-1.795 1.182L.253 44.552c-.259.604-.196 1.297.164 1.844.363.548.975.877 1.631.877h39.07c.656 0 1.268-.329 1.631-.877.36-.547.423-1.24.164-1.844zm-21.33-34.358c4.309 0 7.814 3.501 7.814 7.806 0 4.304-3.505 7.806-7.814 7.806-4.31 0-7.814-3.502-7.814-7.806 0-4.305 3.504-7.806 7.814-7.806zM5.011 43.37l3.35-7.806h5.96l6.573 6.545c.189.19.439.285.689.285.25 0 .5-.095.689-.285l6.573-6.545h5.96l3.35 7.806H5.011z"/>
</svg>
