<svg xmlns="http://www.w3.org/2000/svg" width="54" height="54">
    <path fill="#625E97" fill-rule="evenodd" d="M50.782 18.796c-.488.529-.694 1.118-.693 1.84.013 8.531.01 17.062.008 25.593-.001 3.994-2.925 7.239-6.923 7.692-3.762.426-7.352-2.188-8.2-6.002-.133-.597-.179-1.224-.182-1.838-.015-4.205-.008-8.411-.008-12.616h-.002c0-4.226-.017-8.452.015-12.677.006-.884-.299-1.544-.866-2.197-2.762-3.185-3.674-6.842-2.478-10.904.836-2.842 2.653-5.003 5.147-6.59.316-.202.666-.361 1.016-.5.671-.268.991-.052.995.666.009 1.595.005 3.189.005 4.784 0 1.475.006 2.95-.005 4.425-.006.91.381 1.564 1.2 1.964.572.28 1.144.561 1.712.849.613.311 1.221.319 1.835.009.551-.278 1.099-.563 1.657-.825.872-.408 1.268-1.078 1.262-2.043-.016-2.99-.007-5.98-.005-8.97 0-.978.327-1.222 1.21-.771 3.494 1.782 5.676 4.614 6.301 8.483.592 3.659-.481 6.895-3.001 9.628zm-8.323 24.629c-1.564-.005-2.858 1.269-2.875 2.832-.017 1.585 1.283 2.902 2.868 2.904 1.57.002 2.853-1.268 2.865-2.835.013-1.608-1.256-2.897-2.858-2.901zm-24.906-2.194c-.001 1.694.011 3.389-.004 5.083-.019 2.117-1.691 3.787-3.81 3.802-1.914.015-3.828.017-5.742-.001-2.167-.019-3.822-1.67-3.84-3.833-.018-2.092-.014-4.186 0-6.279.002-.352-.09-.564-.396-.776C1.506 37.666.328 35.511.326 32.755c-.002-1.573-.063-3.158.102-4.716.25-2.36 1.538-4.132 3.505-5.44.29-.193.56-.506.699-.825 1.291-2.954 2.532-5.93 3.826-8.883 1.406-3.207 3.874-4.862 7.392-4.877 3.628-.016 7.257-.004 10.885-.004h.513v5.742h-.54c-3.609 0-7.217.012-10.826-.007-1.044-.006-1.733.428-2.149 1.38-.845 1.932-1.714 3.855-2.571 5.782-.064.142-.117.288-.195.483h19.941v7.675h-8.987c-1.562 0-2.442.681-2.452 1.897-.01 1.236.881 1.928 2.483 1.928h8.98v7.642H17.553v.699zm-6.666-15.036c-2.647-.014-4.81 2.123-4.819 4.762-.008 2.643 2.14 4.803 4.779 4.805 2.618.003 4.768-2.122 4.789-4.733.021-2.648-2.111-4.819-4.749-4.834z"/>
</svg>
