<svg xmlns="http://www.w3.org/2000/svg" width="68" height="112">
    <path fill="#FFF" fill-rule="evenodd" d="M37.72 89.372v14.972h11.116c2.124 0 3.747 1.622 3.747 3.743 0 2.12-1.623 3.742-3.747 3.742H19.11c-2.123 0-3.747-1.622-3.747-3.742 0-2.121 1.624-3.743 3.747-3.743h11.116V89.372C12.99 87.376 0 72.903 0 55.561V41.462c0-2.121 1.624-3.743 3.747-3.743 2.124 0 3.747 1.622 3.747 3.743v14.099c0 14.597 11.866 26.45 26.479 26.45 14.614 0 26.479-11.853 26.479-26.45V41.462c0-2.121 1.624-3.743 3.747-3.743 2.123 0 3.747 1.747 3.747 3.743v14.099c0 17.342-12.99 31.939-30.226 33.811zm-3.747-13.599c-11.241 0-20.234-8.984-20.234-19.838v-1.996h13.365c1.748 0 3.122-1.373 3.122-3.119 0-1.747-1.374-3.119-3.122-3.119h-12.74c-.25-.125-.375 0-.625 0v-6.363h13.365c1.748 0 3.122-1.373 3.122-3.119 0-1.747-1.374-3.12-3.122-3.12h-12.74c-.25-.124-.375 0-.625 0v-6.363h13.365c1.748 0 3.122-1.372 3.122-3.119 0-1.746-1.374-3.119-3.122-3.119h-12.74c-.25-.125-.375 0-.625 0v-1.996C13.739 9.398 22.857.29 33.973.29c11.116 0 20.234 8.983 20.234 20.212v1.871H40.843c-1.749 0-3.123 1.373-3.123 3.119 0 1.747 1.374 3.12 3.123 3.12h13.364v6.238H40.843c-1.749 0-3.123 1.372-3.123 3.119s1.374 3.119 3.123 3.119h13.364v6.238H40.843c-1.749 0-3.123 1.373-3.123 3.119 0 1.747 1.374 3.12 3.123 3.12h13.364v1.996c0 11.104-8.993 20.212-20.234 20.212z"/>
</svg>
