<svg xmlns="http://www.w3.org/2000/svg" width="179" height="138">
    <path fill="#201D46" fill-rule="evenodd" d="M178.863 69.177c0 1.612-.483 3.225-1.371 4.434l-40.347 60.487c-1.452 2.178-3.873 3.629-6.698 3.629H8.926c-4.437 0-8.069-3.629-8.069-8.064 0-1.614.485-3.227 1.371-4.436l32.559-48.846c2.908-4.363 2.909-10.046 0-14.409L2.228 13.125C1.342 11.915.857 10.303.857 8.69.857 4.254 4.489.624 8.926.624h121.521c2.825 0 5.246 1.452 6.698 3.63l40.347 60.487c.888 1.209 1.371 2.822 1.371 4.436z"/>
</svg>
