<svg xmlns="http://www.w3.org/2000/svg" width="37" height="36">
    <path fill="#AAB4C1" fill-rule="evenodd" d="M34.82 32.013h-6.616c-.65 2.224-2.71 3.853-5.146 3.853-2.437 0-4.497-1.629-5.146-3.853h-4.697c-1.057 0-1.917-.857-1.917-1.911V22.96c0-1.022.82-2.008 1.827-2.198l5.045-.95-5.211-3.102c-.619-.369-.822-1.17-.452-1.788.37-.618 1.173-.819 1.792-.45l6.597 3.927c.048-.059.093-.119.132-.179l4.688-7.245c.536-.829 1.731-1.477 2.719-1.477h6.385c1.057 0 1.917.857 1.917 1.911v18.693c0 1.054-.86 1.911-1.917 1.911zm-14.425-1.492c0 1.466 1.192 2.655 2.663 2.655 1.47 0 2.662-1.189 2.662-2.655 0-1.466-1.192-2.655-2.662-2.655-1.471 0-2.663 1.189-2.663 2.655zm14.369-17.212c0-.699-.573-1.27-1.273-1.27h-3.948c-.701 0-1.573.488-1.937 1.083l-3.398 5.549c-.364.596-.09 1.083.61 1.083h8.673c.7 0 1.273-.571 1.273-1.269v-5.176zM9.551 7.173c-.143.018-.288.028-.431.028-1.637 0-3.032-1.222-3.246-2.843-.114-.865.117-1.723.65-2.415C7.057 1.25 7.828.806 8.696.693c.143-.019.288-.029.431-.029 1.637 0 3.032 1.222 3.245 2.842.236 1.787-1.03 3.431-2.821 3.667zm-2.658.681c1.035.513 1.224 1.526 1.239 1.634l.853 6.622 2.938 2.012c.36.247.602.619.682 1.047.079.428-.013.862-.26 1.221-.305.443-.81.707-1.35.707-.331 0-.65-.099-.924-.287l-3.036-2.079c-.658-.451-1.171-1.283-1.277-2.071l-.104-.777-1.281 2.96c-.026.067-.07.283-.073.362v13.804c0 1.129-.921 2.047-2.053 2.047S.193 34.138.193 33.009V19.194c0-.606.168-1.417.409-1.973l3.592-8.298c.325-.752 1.066-1.237 1.887-1.237.28 0 .56.043.812.168z"/>
</svg>
