<svg id="bold" enable-background="new 0 0 24 24" height="512" viewBox="0 0 24 24" width="512" xmlns="http://www.w3.org/2000/svg"><path d="m20.5 3c-.827 0-1.5-.673-1.5-1.5s.673-1.5 1.5-1.5 1.5.673 1.5 1.5-.673 1.5-1.5 1.5z"/><path d="m16.75 9h-1c-.689 0-1.25-.561-1.25-1.25v-3.5c0-.689.561-1.25 1.25-1.25h1c.689 0 1.25.561 1.25 1.25v3.5c0 .689-.561 1.25-1.25 1.25zm-.75-1.5h.5v-3h-.5z"/><path d="m7.75 9h-1c-.414 0-.75-.336-.75-.75s.336-.75.75-.75h.75v-.75h-.75c-.414 0-.75-.336-.75-.75s.336-.75.75-.75h1c.689 0 1.25.561 1.25 1.25v1.25c0 .689-.561 1.25-1.25 1.25zm0-2.25h.01z"/><path d="m7.75 6.75h-1c-.414 0-.75-.336-.75-.75s.336-.75.75-.75h.75v-.75h-.75c-.414 0-.75-.336-.75-.75s.336-.75.75-.75h1c.689 0 1.25.561 1.25 1.25v1.25c0 .689-.561 1.25-1.25 1.25zm0-2.25h.01z"/><path d="m12.25 9h-1c-.689 0-1.25-.561-1.25-1.25v-3.5c0-.689.561-1.25 1.25-1.25h1.5c.414 0 .75.336.75.75s-.336.75-.75.75h-1.25v.75h.75c.689 0 1.25.561 1.25 1.25v1.25c0 .689-.561 1.25-1.25 1.25zm-.75-1.5h.5v-.75h-.5z"/><path d="m20 7.216v.534c0 1.349-.827 2.508-2 2.998v2.812l1.2-.24c2.06-.41 4.8-1.19 4.8-3.17 0-1.27-1.319-2.228-4-2.934z"/><path d="m4 8.25c0-.388.084-.756.23-1.092-2.835.711-4.23 1.687-4.23 2.992 0 1.98 2.74 2.76 4.8 3.17l1.2.24v-2.677c-1.151-.329-2-1.378-2-2.633z"/><path d="m14.966 19.521-2.986 3.08c-.312.319-.713.496-1.134.499-.429-.031-.812-.164-1.117-.469 0 0-2.063-1.956-2.109-1.91l-2.566 2.549c2.076.49 4.546.73 6.946.73 2.501 0 5.083-.257 7.209-.791z"/><path d="m12 15.5c-5.232 0-9.759-.994-12-2.445v6.576c0 1.409 1.381 2.454 3.435 3.17.026-.038.043-.081.076-.114l3.05-3.03c.625-.624 1.605-.623 2.229.002l1.987 1.898 3.073-3.057c.636-.637 1.579-.665 2.205-.075l4.691 4.133c.047.041.075.094.109.143 1.894-.713 3.145-1.726 3.145-3.069v-6.576c-2.241 1.45-6.768 2.444-12 2.444zm-1 3.5c-.552 0-1-.448-1-1s.448-1 1-1 1 .448 1 1-.448 1-1 1z"/></svg>