<svg xmlns="http://www.w3.org/2000/svg" width="39" height="30">
    <path fill="#AAB4C1" fill-rule="evenodd" d="M36.861 10.976h-.213l.282.685c.459 1.117.833 3.009.833 4.216v8.434c0 .974-.794 1.767-1.771 1.767h-2.313c-.976 0-1.77-.793-1.77-1.767v-2.106H21.63c-.537 1.577-1.431 3.023-2.645 4.235-2.084 2.08-4.855 3.225-7.802 3.225-2.947 0-5.718-1.145-7.802-3.225C1.297 24.361.149 21.596.149 18.655s1.148-5.707 3.232-7.786c.592-.591 1.242-1.104 1.935-1.54-.003-.04-.007-.08-.007-.12V8.22c0-.835.577-1.441 1.372-1.441.145 0 .294.021.443.061l1.66.457 1.744-4.24c.495-1.202 1.957-2.18 3.26-2.18H30.13c1.303 0 2.765.978 3.26 2.18l1.746 4.246 1.682-.463c.149-.04.297-.061.443-.061.794 0 1.371.606 1.371 1.441v.989c0 .974-.794 1.767-1.771 1.767zM5.716 13.2c-1.46 1.457-2.264 3.394-2.264 5.455 0 2.06.804 3.998 2.264 5.455 1.46 1.457 3.402 2.26 5.467 2.26 2.065 0 4.006-.803 5.467-2.26 1.46-1.457 2.264-3.395 2.264-5.455 0-2.061-.804-3.998-2.264-5.455-1.461-1.458-3.402-2.26-5.467-2.26-2.065 0-4.007.802-5.467 2.26zm28.148-3.184l-2.641-6.42c-.296-.72-1.176-1.308-1.955-1.308H14.65c-.779 0-1.659.588-1.955 1.308l-1.667 4.052c.052-.001.103-.004.155-.004 2.947 0 5.717 1.145 7.802 3.225.148.148.29.3.429.455h13.572c.779 0 1.174-.588.878-1.308zm.491 5.718c0-.388-.319-.707-.709-.707h-5.017c-.39 0-.709.319-.709.707v2.404c0 .388.319.706.709.706h5.017c.39 0 .709-.318.709-.706v-2.404zm-18.08-1.563c.631.463.767 1.349.304 1.979l-4.661 6.333c-.352.478-.899.731-1.452.731-.367 0-.738-.111-1.056-.342l-3.314-2.406c-.634-.46-.774-1.345-.313-1.977.461-.632 1.348-.772 1.981-.312l2.479 1.799 4.049-5.502c.464-.63 1.352-.765 1.983-.303z"/>
</svg>
