<svg xmlns="http://www.w3.org/2000/svg" width="44" height="44">
    <path fill="#29255A" fill-rule="evenodd" d="M40.009 44C17.948 44 0 26.052 0 3.99 0 2.066 1.565.5 3.49.5h7.989c1.926 0 3.491 1.566 3.49 3.49 0 2.66.418 5.275 1.239 7.77.402 1.269.071 2.627-.861 3.56l-3.587 4.766c2.988 5.63 6.483 9.122 12.154 12.15l4.89-3.692c.741-.76 2.23-1.14 3.448-.727 2.478.819 5.093 1.236 7.757 1.236 1.926 0 3.491 1.565 3.491 3.49v7.966c0 1.925-1.565 3.491-3.491 3.491zm-.134-24.138H28.292l-4.48 4.486c-.231.232-.54.355-.854.355-.156 0-.311-.029-.462-.092-.451-.187-.746-.628-.746-1.116V6.583c0-2.002 1.626-3.63 3.625-3.63h14.5c1.999 0 3.625 1.628 3.625 3.63v9.649c0 2.001-1.626 3.63-3.625 3.63z"/>
</svg>
