<svg xmlns="http://www.w3.org/2000/svg" width="24.414" height="21.897" viewBox="0 0 24.414 21.897"><defs></defs><path class="a" d="M18.3,21.5H5.714A5.72,5.72,0,0,1,0,15.783V5.714A5.72,5.72,0,0,1,5.714,0H18.3a5.72,5.72,0,0,1,5.714,5.714V15.783A5.72,5.72,0,0,1,18.3,21.5ZM5.714,1.358A4.36,4.36,0,0,0,1.358,5.714V15.783a4.36,4.36,0,0,0,4.355,4.355H18.3a4.36,4.36,0,0,0,4.356-4.355V5.714A4.36,4.36,0,0,0,18.3,1.358Zm7.238,14.475a.714.714,0,0,1-.12-.01.678.678,0,0,1-.543-.519L10.715,8.392,9.12,11.711a.686.686,0,0,1-.613.385H4.415a.679.679,0,0,1,0-1.358H8.08l2.252-4.688a.692.692,0,0,1,.627-.384l.061,0a.682.682,0,0,1,.587.525l1.649,7.246,1.564-2.395a.674.674,0,0,1,.569-.307H19.6a.679.679,0,0,1,0,1.358h-3.84L13.52,15.525A.676.676,0,0,1,12.951,15.833Z" transform="translate(0.2 0.2)"/></svg>