<svg xmlns="http://www.w3.org/2000/svg" width="71" height="71">
    <path fill="#FFF" fill-rule="evenodd" d="M63.968 70.352V63.97h6.384v6.382h-6.384zM51.205 51.204h-6.382v19.148H38.44V38.44h19.147v6.383h6.382V38.44h6.383V57.587H51.205v-6.383zM38.44.148h31.912V32.06H38.44V.148zm6.383 25.528h19.146V6.53H44.823v19.146zm6.382-12.764h6.382v6.383h-6.382v-6.383zM.148 38.441h31.911v31.911H.148V38.441zM6.53 63.92h19.146V44.823H6.53V63.92zm6.382-12.716h6.382v6.383h-6.382v-6.383zM.148.148h31.911V32.06H.148V.148zM6.53 25.676h19.146V6.53H6.53v19.146zm6.382-12.764h6.382v6.383h-6.382v-6.383zm44.675 57.44h-6.382V63.97h6.382v6.382z"/>
</svg>
