<svg xmlns="http://www.w3.org/2000/svg" width="49" height="50">
    <path fill="#84C575" fill-rule="evenodd" d="M41.824 7.675C37.197 3.048 31.044.5 24.5.5 17.956.5 11.803 3.048 7.176 7.675 2.548 12.303 0 18.455 0 25c0 6.544 2.548 12.696 7.176 17.324C11.803 46.951 17.956 49.5 24.5 49.5c6.544 0 12.697-2.549 17.324-7.176C46.451 37.696 49 31.544 49 25c0-6.545-2.549-12.697-7.176-17.325zm-5.619 11.494L22.513 32.861c-.28.28-.648.42-1.015.42-.367 0-.735-.14-1.015-.42l-7.688-7.689c-.561-.56-.561-1.469 0-2.03.56-.56 1.469-.56 2.03 0l6.673 6.673 12.677-12.676c.56-.561 1.469-.561 2.03 0 .561.56.561 1.469 0 2.03z"/>
</svg>
