<svg xmlns="http://www.w3.org/2000/svg" width="50" height="51">
    <path fill="#BAC7D8" fill-rule="evenodd" d="M48.69 48.873l-.312.311c-1.809 1.81-4.663 1.325-6.704-.716L31.443 38.237c-.47-.471-1.028-.138-1.028-.138-7.72 4.631-17.606 3.624-24.253-3.023-7.835-7.835-7.835-20.584 0-28.419 7.835-7.835 20.584-7.835 28.419 0 6.647 6.647 7.654 16.533 3.023 24.253 0 0-.333.558.116 1.007l10.253 10.252c2.041 2.041 2.527 4.894.717 6.704zM30.871 10.367c-5.79-5.789-15.21-5.789-20.999 0-5.789 5.789-5.789 15.21 0 20.999 5.79 5.789 15.209 5.789 20.999 0 5.789-5.789 5.789-15.209 0-20.999zm-1.283 9.307c-.808 0-1.576-.475-1.911-1.267-1.914-4.523-7.152-6.646-11.675-4.732-1.056.446-2.272-.047-2.719-1.102-.446-1.055.047-2.272 1.102-2.718 6.63-2.806 14.307.306 17.113 6.936.446 1.055-.047 2.272-1.102 2.718-.264.112-.538.165-.808.165z"/>
</svg>
