<svg xmlns="http://www.w3.org/2000/svg" width="18.983" height="15.167" viewBox="0 0 18.983 15.167"><defs></defs><path class="a" d="M19.454,2.3a6.967,6.967,0,0,1-2.172.606A4.1,4.1,0,0,0,18.914.816a6.383,6.383,0,0,1-2.442.853h0A3.938,3.938,0,0,0,13.641.48,3.884,3.884,0,0,0,9.725,4.33a3.777,3.777,0,0,0,.1.86h0a10.907,10.907,0,0,1-8.073-4A3.816,3.816,0,0,0,2.938,6.282a2.558,2.558,0,0,1-1.71-.435A3.72,3.72,0,0,0,4.249,9.61a3.158,3.158,0,0,1-1.631.122,3.691,3.691,0,0,0,3.5,2.613,7.041,7.041,0,0,1-5.647,1.6,11.922,11.922,0,0,0,6.126,1.7A10.78,10.78,0,0,0,17.558,4.4c0-.007,0-.015,0-.021s0-.033,0-.049,0-.037,0-.056A6.7,6.7,0,0,0,19.454,2.3Z" transform="translate(-0.472 -0.48)"/></svg>