<svg xmlns="http://www.w3.org/2000/svg" width="39" height="25">
    <path fill="#AAB4C1" fill-rule="evenodd" d="M37.693 6.846c-.131 0-.265.018-.399.055l-1.517.419-1.575-3.847c-.447-1.09-1.766-1.977-2.941-1.977H16.519c-1.175 0-2.494.887-2.941 1.977l-1.176 2.875c.017-.191.026-.384.026-.578 0-2.23-1.2-4.303-3.133-5.412-.103-.059-.222-.09-.344-.09-.39 0-.684.305-.684.707 0 0-.012 3.119-.012 4.159 0 .109-.13.239-.184.278l-.039.03C7.41 5.96 6.626 6.545 6.28 6.725h-.135c-.352-.181-1.149-.775-1.78-1.304l-.039-.03c-.002-.001-.153-.122-.153-.356 0-1.083-.011-4.057-.011-4.057-.001-.469-.335-.714-.666-.714-.128 0-.26.035-.373.1C1.197 1.474 0 3.545 0 5.77c0 2.61 1.609 4.848 3.883 5.775v10.609c0 1.253 1.017 2.273 2.267 2.273h.129c1.249 0 2.266-1.02 2.266-2.273V11.549c.763-.31 1.464-.772 2.063-1.373.146-.146.283-.298.412-.455l-.634 1.55c-.415 1.012-.752 2.727-.752 3.821v7.644c0 .883.716 1.602 1.597 1.602h2.087c.88 0 1.597-.719 1.597-1.602v-1.909h17.95v1.909c0 .883.717 1.602 1.598 1.602h2.086c.88 0 1.597-.719 1.597-1.602v-7.644c0-1.094-.337-2.809-.752-3.821l-.254-.621h.193c.881 0 1.597-.719 1.597-1.602v-.897c.001-.756-.52-1.305-1.237-1.305zM13.151 9.78l2.383-5.82c.267-.652 1.06-1.185 1.763-1.185h13.187c.702 0 1.496.533 1.763 1.185l2.383 5.82c.267.652-.09 1.186-.793 1.186H13.944c-.703 0-1.06-.534-.793-1.186zm5.319 7.361c0 .352-.287.641-.639.641h-4.526c-.352 0-.639-.288-.639-.641v-2.178c0-.352.287-.641.639-.641h4.526c.352 0 .639.289.639.641v2.178zm16.602 0c0 .352-.288.641-.639.641h-4.527c-.351 0-.639-.288-.639-.641v-2.178c0-.352.288-.641.639-.641h4.527c.351 0 .639.289.639.641v2.178z"/>
</svg>
