<svg xmlns="http://www.w3.org/2000/svg" width="30" height="36">
    <path fill="#AAB4C1" fill-rule="evenodd" d="M28.304 22.09h-.187l.247.602c.404.98.732 2.642.732 3.702v7.405c0 .855-.697 1.552-1.554 1.552h-2.029c-.857 0-1.554-.697-1.554-1.552v-1.85H6.502v1.85c0 .855-.697 1.552-1.553 1.552h-2.03c-.856 0-1.553-.697-1.553-1.552v-7.405c0-1.061.328-2.722.731-3.703l.248-.601h-.167c-.857 0-1.554-.697-1.554-1.552v-.869c0-.733.506-1.265 1.203-1.265.128 0 .258.018.389.054l1.457.401 1.53-3.723c.433-1.056 1.717-1.915 2.859-1.915H22.4c1.143 0 2.426.859 2.86 1.915l1.532 3.728 1.475-.406c.13-.036.261-.054.388-.054.698 0 1.204.532 1.203 1.265v.869c0 .855-.697 1.552-1.554 1.552zM4.315 26.268v2.11c0 .342.28.621.621.621h4.403c.341 0 .621-.279.621-.621v-2.11c0-.341-.28-.621-.621-.621H4.936c-.341 0-.621.28-.621.621zm21.361-5.021l-2.317-5.638c-.26-.632-1.032-1.149-1.715-1.149H8.819c-.683 0-1.455.517-1.715 1.149l-2.317 5.638c-.26.631.087 1.148.771 1.148h19.347c.684 0 1.031-.517.771-1.148zm.43 5.021c0-.341-.28-.621-.621-.621h-4.402c-.342 0-.622.28-.622.621v2.11c0 .342.28.621.622.621h4.402c.341 0 .621-.279.621-.621v-2.11zM18.424 9.899c.225.206.34.488.34.771 0 .252-.09.504-.274.704-.389.426-1.051.456-1.477.067-.422-.385-1.267-.675-1.966-.675-.693 0-1.532.285-1.952.662-.43.386-1.091.352-1.477-.077-.387-.429-.352-1.09.078-1.475.921-.828 2.346-1.199 3.351-1.199 1.014 0 2.452.378 3.377 1.222zM9.35 7.88c-.387-.429-.352-1.089.077-1.475 1.529-1.377 3.92-1.993 5.612-1.993 2.05 0 4.322.816 5.653 2.03.225.206.34.488.34.771 0 .252-.09.504-.273.705-.39.425-1.051.455-1.478.066-.942-.859-2.726-1.483-4.242-1.483-1.504 0-3.275.612-4.213 1.456-.429.386-1.09.351-1.476-.077zm12.681-3.205c-1.722-1.571-4.471-2.586-7.004-2.586-2.509 0-5.237.997-6.95 2.539-.429.386-1.09.352-1.477-.077-.386-.428-.353-1.089.077-1.475C8.752 1.207 12.03 0 15.027 0c3.026 0 6.329 1.229 8.415 3.132.226.207.34.489.34.772 0 .252-.09.504-.273.704-.39.426-1.051.456-1.478.067z"/>
</svg>
