<svg xmlns="http://www.w3.org/2000/svg" width="26.044" height="26.046" viewBox="0 0 26.044 26.046"><defs></defs><path class="a" d="M19.372,25.646H6.274A6.243,6.243,0,0,1,0,19.447V10.358a6.243,6.243,0,0,1,6.274-6.2h.175L16.191.17A2.311,2.311,0,0,1,17.057,0a2.283,2.283,0,0,1,.915.192,2.305,2.305,0,0,1,1.239,1.291l1.12,2.773a6.324,6.324,0,0,1,3.782,2.064,6.13,6.13,0,0,1,1.123,1.845,6.055,6.055,0,0,1,.408,2.194v9.089A6.243,6.243,0,0,1,19.372,25.646ZM6.274,5.611A4.791,4.791,0,0,0,1.45,10.358v9.089a4.791,4.791,0,0,0,4.823,4.747h13.1a4.79,4.79,0,0,0,4.822-4.747v-.354H17.86a3.175,3.175,0,0,1-3.171-3.172V13.884a3.175,3.175,0,0,1,3.171-3.172h6.334v-.354a4.79,4.79,0,0,0-4.822-4.747ZM17.86,12.164a1.722,1.722,0,0,0-1.72,1.72v2.037a1.722,1.722,0,0,0,1.72,1.72h6.334V12.164Zm-.8-10.712a.856.856,0,0,0-.318.062L10.28,4.159h8.446L17.86,2.016a.86.86,0,0,0-.8-.564Z" transform="translate(0.2 0.2)"/></svg>